<svg width="22" height="22" viewBox="0 0 22 22" fill="none" xmlns="http://www.w3.org/2000/svg">
<path d="M11 13.4063L8.59377 11L11 8.59377L13.4063 11L11 13.4063ZM9.0521 6.66877L7.15002 4.76669L11 0.916687L14.85 4.76669L12.9479 6.66877L11 4.72085L9.0521 6.66877ZM4.76669 14.85L0.916687 11L4.76669 7.15002L6.66877 9.0521L4.72085 11L6.66877 12.9479L4.76669 14.85ZM17.2334 14.85L15.3313 12.9479L17.2792 11L15.3313 9.0521L17.2334 7.15002L21.0834 11L17.2334 14.85ZM11 21.0834L7.15002 17.2334L9.0521 15.3313L11 17.2792L12.9479 15.3313L14.85 17.2334L11 21.0834Z" fill="#F2B13A"/>
</svg>
